<svg xmlns="http://www.w3.org/2000/svg" width="400" height="400" preserveAspectRatio="xMidYMid meet" version="1.0" viewBox="0 0 300 300"><metadata>Created by potrace 1.11, written by Peter Selinger 2001-2013</metadata><g fill="#000" stroke="none"><path d="M2723 2908 c-11 -19 -12 -37 -2 -44 20 -12 7 -34 -35 -63 -26 -17 -42 -23 -39 -15 3 8 0 21 -7 29 -33 40 -105 -9 -80 -55 6 -12 10 -23 8 -24 -60 -44 -85 -56 -73 -36 9 15 -41 43 -64 35 -23 -7 -36 -43 -27 -72 4 -13 -4 -23 -31 -38 -29 -15 -40 -30 -49 -61 -16 -56 -41 -92 -87 -125 -36 -26 -61 -47 -182 -149 -23 -19 -61 -51 -86 -71 -24 -20 -160 -134 -303 -252 l-258 -215 -42 51 c-67 83 -83 88 -254 92 -120 3 -155 0 -181 -13 -43 -20 -97 -73 -150 -147 -24 -33 -63 -79 -87 -102 -46 -44 -49 -45 -189 -58 -139 -14 -221 -39 -303 -92 -96 -64 -169 -176 -190 -292 -13 -74 -7 -213 13 -291 44 -171 144 -403 247 -573 131 -217 222 -269 403 -232 254 52 294 66 361 121 54 43 140 172 193 287 22 48 41 91 42 95 2 10 14 39 39 97 31 72 62 100 175 157 115 57 146 83 179 149 19 38 23 61 20 111 -5 105 -14 134 -100 313 -29 61 -32 71 -19 85 22 24 30 76 14 86 -8 5 -17 9 -21 10 -5 1 -10 2 -14 3 -4 1 82 75 335 290 74 62 135 115 141 122 39 42 326 270 353 278 36 12 106 10 139 -4 12 -5 30 6 61 34 37 34 46 39 56 27 9 -11 8 -15 -4 -20 -19 -7 -19 -20 1 -40 21 -22 50 -20 74 4 25 25 13 65 -20 65 -12 0 -25 7 -30 15 -12 22 98 114 117 98 11 -9 11 -14 -3 -29 -16 -18 -16 -20 5 -38 12 -11 30 -18 39 -16 9 2 20 4 24 4 6 1 19 32 24 58 3 17 -23 36 -41 30 -8 -4 -19 1 -24 11 -7 13 2 25 50 60 57 42 99 50 64 12 -16 -17 -15 -20 3 -38 11 -11 29 -19 39 -17 10 2 21 4 25 4 15 2 29 44 24 67 -5 20 -11 23 -30 18 -37 -9 -44 15 -13 42 32 27 33 34 11 77 -10 17 -17 44 -16 59 0 20 -5 29 -21 34 -12 3 -35 22 -50 40 -30 36 -54 42 -76 22 -11 -11 -14 -10 -18 0 -6 16 -32 42 -43 42 -5 0 -12 -6 -17 -12z" transform="translate(0.000000,300.000000) scale(0.100000,-0.100000)"/></g></svg>