<svg xmlns="http://www.w3.org/2000/svg" viewBox="0 -0.5 32 32" shape-rendering="crispEdges"><path stroke="#000" d="M2 0h2m6 0h12m6 0h2M2 1h2m6 0h12m6 0h2M0 2h2m2 0h2m2 0h2m12 0h2m2 0h2m2 0h2M0 3h2m2 0h2m2 0h2m12 0h2m2 0h2m2 0h2M0 4h2m4 0h2m16 0h2m4 0h2M0 5h2m4 0h2m16 0h2m4 0h2M2 6h2m2 0h2m16 0h2m2 0h2M2 7h2m2 0h2m16 0h2m2 0h2M4 8h4m16 0h4M4 9h4m16 0h4M8 10h6m2 0h6m2 0h2M8 11h6m2 0h6m2 0h2M2 12h8m14 0h6M2 13h8m14 0h6M0 14h2m6 0h4m8 0h4m6 0h2M0 15h2m6 0h4m8 0h4m6 0h2M2 16h2m8 0h8m10 0h2M2 17h2m8 0h8m10 0h2M2 18h2m20 0h2m4 0h2M2 19h2m20 0h2m4 0h2M0 20h2m6 0h2m14 0h2m4 0h2M0 21h2m6 0h2m14 0h2m4 0h2M0 22h2m4 0h4m16 0h4M0 23h2m4 0h4m16 0h4M2 24h4m2 0h2m14 0h2M2 25h4m2 0h2m14 0h2M8 26h2m6 0h2m6 0h2M8 27h2m6 0h2m6 0h2M8 28h2m6 0h8M8 29h2m6 0h8m-14 1h2m4 0h2m-8 1h2m4 0h2"/><path stroke="#fffabe" d="M2 2h2m24 0h2M2 3h2m24 0h2M2 4h4M2 5h4"/><path stroke="#9cb5c3" d="M10 2h6m-6 1h6M8 4h2M8 5h2M8 16h4m-4 1h4m-2 1h4m-4 1h4m-2 1h2m-2 1h2"/><path stroke="#83a3b4" d="M16 2h6m-6 1h6M10 4h14M10 5h14M4 16h4m20 0h2M4 17h4m20 0h2M6 18h2m-2 1h2m2 1h2m2 0h8m-12 1h2m2 0h8m-12 3h2m-2 1h2"/><path stroke="#ffc898" d="M26 4h2m-2 1h2"/><path stroke="#fff9ae" d="M28 4h2m-2 1h2M4 6h2M4 7h2"/><path stroke="#fff565" d="M8 6h12M8 7h12m-6 1h2m-2 1h2M2 14h6m18 0h2M2 15h6m18 0h2m-14 7h4m-4 1h4"/><path stroke="#fff33e" d="M20 6h4m-4 1h4m-8 1h2m-2 1h2m10 5h2m-2 1h2"/><path stroke="#ffc78b" d="M26 6h2m-2 1h2"/><path stroke="#58451b" d="M8 8h6m4 0h6M8 9h6m4 0h6m-2 1h2m-2 1h2m2 9h2m-2 1h2M4 22h2m16 0h4M4 23h2m16 0h4m-12 5h2m-2 1h2m-4 1h4m-4 1h4"/><path stroke="#6f603e" d="M14 10h2m-2 1h2"/><path stroke="#fff" d="M10 12h2m8 0h2m-12 1h2m8 0h2"/><path stroke="#007dc5" d="M12 12h2m4 0h2m-8 1h2m4 0h2"/><path stroke="#fed9b1" d="M14 12h2m-2 1h2"/><path stroke="#fed09e" d="M16 12h2m4 0h2m-8 1h2m4 0h2m-12 1h8m-8 1h8M4 18h2m22 0h2M4 19h2m22 0h2"/><path stroke="#ffc451" d="M24 14h2m-2 1h2"/><path stroke="#698290" d="M20 16h8m-8 1h8M8 18h2m10 0h4M8 19h2m10 0h4m-2 1h2m-2 1h2m-12 3h12m-12 1h12m-10 1h2m-2 1h2"/><path stroke="#7d919c" d="M14 18h6m-6 1h6"/><path stroke="#cba67e" d="M26 18h2m-2 1h2M6 20h2m-2 1h2"/><path stroke="#8b784e" d="M2 20h2m-2 1h2m-2 1h2m6 0h2M2 23h2m6 0h2m-2 3h2m-2 1h2m-2 1h2m-2 1h2"/><path stroke="#6e5622" d="M4 20h2m22 0h2M4 21h2m22 0h2m-18 1h2m4 0h4m-10 1h2m4 0h4m-10 3h2m4 0h6m-12 1h2m4 0h6m-12 1h2m-2 1h2"/><path stroke="rgba(0,0,0,0.4)" d="M6 28h2m16 0h2M6 29h2m16 0h2M2 30h8m8 0h10M2 31h8m8 0h10"/><path stroke="rgba(0,0,0,0.403921568627451)" d="M28 30h2m-2 1h2"/></svg>