<svg xmlns="http://www.w3.org/2000/svg" viewBox="0 -0.5 30 32" shape-rendering="crispEdges"><path stroke="#000" d="M8 0h12M8 1h12M2 2h2m2 0h2m12 0h2m2 0h2M2 3h2m2 0h2m12 0h2m2 0h2M0 4h2m2 0h2m16 0h2m2 0h2M0 5h2m2 0h2m16 0h2m2 0h2M0 6h2m2 0h2m20 0h2M0 7h2m2 0h2m20 0h2M2 8h4m16 0h4M2 9h4m16 0h4M6 10h6m2 0h6m2 0h2M6 11h6m2 0h6m2 0h2M4 12h4m14 0h4M4 13h4m14 0h4M2 14h2m2 0h4m8 0h4m4 0h2M2 15h2m2 0h4m8 0h4m4 0h2M0 16h2m8 0h8m10 0h2M0 17h2m8 0h8m10 0h2M0 18h2m20 0h2m4 0h2M0 19h2m20 0h2m4 0h2M0 20h2m4 0h2m14 0h2m4 0h2M0 21h2m4 0h2m14 0h2m4 0h2M0 22h2m4 0h2m12 0h2m2 0h4M0 23h2m4 0h2m12 0h2m2 0h4M2 24h6m14 0h2M2 25h6m14 0h2M6 26h2m6 0h2m6 0h2M6 27h2m6 0h2m6 0h2M6 28h2m6 0h8M6 29h2m6 0h8M8 30h2m4 0h2m-8 1h2m4 0h2"/><path stroke="#8bb482" d="M8 2h12M8 3h12M2 4h2m2 0h12m6 0h2M2 5h2m2 0h12m6 0h2M2 6h2m2 0h2m4 0h2M2 7h2m2 0h2m4 0h2m-2 3h2m-2 1h2m-2 1h2m-2 1h2M4 14h2m4 0h2m-8 1h2m4 0h2M2 16h2m-2 1h2m-2 1h2m-2 1h2m-2 1h2m6 0h2m4 0h2M2 21h2m6 0h2m4 0h2M8 24h2m-2 1h2m-2 1h2m-2 1h2"/><path stroke="#6ea163" d="M18 4h4m-4 1h4M8 6h4m2 0h12M8 7h4m2 0h12M6 8h14M6 9h14m-6 3h2m-2 1h2m-4 1h6m-6 1h6M4 16h2m20 0h2M4 17h2m20 0h2M4 18h6m8 0h4m4 0h2M4 19h6m8 0h4m4 0h2M4 20h2m2 0h2m2 0h4m2 0h2M4 21h2m2 0h2m2 0h4m2 0h2M2 22h4m-4 1h4m4 1h2m-2 1h2m-2 1h2m6 0h4m-12 1h2m6 0h4M8 28h4m-4 1h4"/><path stroke="#58814f" d="M20 8h2m-2 1h2m-2 1h2m-2 1h2m-2 1h2m-2 1h2m0 1h4m-4 1h4M6 16h4m8 0h8M6 17h4m8 0h8m-16 1h8m6 0h2m-16 1h8m6 0h2m-6 1h2m2 0h4m-8 1h2m2 0h4m-12 3h6m-6 1h6m-6 1h2m-2 1h2m-8 3h4m-4 1h4"/><path stroke="#d0e0cc" d="M8 12h2m8 0h2M8 13h2m8 0h2"/><path stroke="#8b0304" d="M10 12h2m4 0h2m-8 1h2m4 0h2"/><path stroke="#6d5742" d="M8 22h12M8 23h12m-8 1h2m-2 1h2"/><path stroke="#574635" d="M14 24h2m-2 1h2m-4 1h2m-2 1h2m-2 1h2m-2 1h2"/><path stroke="rgba(0,0,0,0.09803921568627451)" d="M24 24h2m-2 1h2M2 30h2m20 0h2M2 31h2m20 0h2"/><path stroke="rgba(0,0,0,0.00784313725490196)" d="M26 24h2m-2 1h2M0 30h2m24 0h2M0 31h2m24 0h2"/><path stroke="rgba(0,0,0,0.20784313725490197)" d="M0 26h2m24 0h2M0 27h2m24 0h2M0 28h2m24 0h2M0 29h2m24 0h2"/><path stroke="rgba(0,0,0,0.4)" d="M2 26h4m18 0h2M2 27h4m18 0h2M2 28h4m16 0h4M2 29h4m16 0h4"/><path stroke="rgba(0,0,0,0.1803921568627451)" d="M4 30h2m16 0h2M4 31h2m16 0h2"/><path stroke="rgba(0,0,0,0.2549019607843137)" d="M6 30h2m12 0h2M6 31h2m12 0h2"/><path stroke="rgba(0,0,0,0.3607843137254902)" d="M16 30h2m-2 1h2"/><path stroke="rgba(0,0,0,0.3137254901960784)" d="M18 30h2m-2 1h2"/></svg>